<?xml version="1.0" encoding="UTF-8"?><svg id="Calque_1" xmlns="http://www.w3.org/2000/svg" viewBox="0 0 2000 2000"><path d="M760.25,884.45s-293.37-229.09-440.56-123.08c-147.2,106.01,440.56,123.08,440.56,123.08Z" style="fill:#d85513;"/><path d="M758.32,1020.08c-6.77,24.97-24.22,61.22-65.01,111.02-22.78,27.81,1.07,68.85,36.53,62.94,57.61-9.59,133.22-44.45,197.47-148.3,22.45-36.29,48.59-70.19,79.07-100.05,90.33-88.49,270.72-213.04,497.51-100.07,0,0,201.88,127.15,259.81,90.69,17.77-11.19,12.14-44.23-4.2-84.68-98.8-244.46-481.16-515.31-923.31-.91-40.98,47.68-61.42,108.68-77.87,169.36Z" style="fill:#d85513;"/><g><path d="M1867.96,993.07c-24.84-26.75-34.83-56.78-30.55-91.8,.82-6.67,.65-18.84-7.92-54.06-12.29-50.49-11.55-103.94,2.13-154.54,2.6-9.61-.34-19.77-7.66-26.52-7.32-6.74-17.68-8.85-27.05-5.47l-115.81,41.69c-80.62-76.81-177.02-117.2-286.66-120.07-89.48-2.33-187.56,20.27-291.69,67.19-175.89,79.26-306.55,198.97-312.02,204.02l21.57,23.36c1.3-1.2,132.29-121.24,303.52-198.39,99.73-44.94,193.13-66.62,277.8-64.39,104.58,2.74,196.21,42.41,272.34,117.9l7.13,7.07,55.65-20.03c-9.76,11.95-17.9,25.77-23.3,41.75-11.09,32.84-5,59.31-4.74,60.42l30.92-7.36c-.17-.71-14.36-65.16,64.56-109.49-10.3,49.74-9.52,101.33,2.43,150.41,7.9,32.47,7.43,41.25,7.26,42.68-5.42,44.27,7.64,83.73,38.81,117.29,1.88,2.03,2.97,3.55,3.58,4.57-1.26,.8-3.51,1.98-7.35,3.24-20.27,6.65-43.38,3.12-61.84-9.46-51.4-35.03-147.76-93.09-215.67-88.6l2.12,31.72c60.68-4.03,157,56.8,195.65,83.15,17.63,12.02,38.32,18.26,58.9,18.26,10.42,0,20.82-1.6,30.76-4.87,16.33-5.37,26.12-13.91,29.09-25.4,2.87-11.11-1.15-22.63-11.93-34.24Z" style="fill:#212a3d;"/><path d="M1483.93,1032.65l-29.72-11.28c18.22-47.97,16.99-85.28-3.63-110.88-28.84-35.81-91.26-46.07-138.54-48.37-53.47-2.6-100.24,4.26-100.7,4.33l-4.71-31.44c8.15-1.22,200.58-29,268.69,55.51,28.23,35.03,31.13,82.85,8.61,142.14Z" style="fill:#212a3d;"/><path d="M407.31,1442c-1.58,0-3.19-.05-4.82-.15-22.51-1.36-49.16-12.19-56.54-30.27-4.06-9.95-1.99-20.51,5.67-28.99,100.7-111.3,173.52-173.32,226.7-218.61,88.98-75.79,110.13-93.8,103.29-208.28l31.73-1.9c7.78,130.3-23.01,156.53-114.41,234.37-52.11,44.39-123.34,105.05-221.49,213.27,5.05,3.78,17.43,9.01,30.7,8.75,7.23-.13,11.53-2,12.48-3.69,43.66-78.38,105.43-132.07,183.6-159.58,63.89-22.49,122.59-22.2,157.71-22,2.77,.01,5.37,.03,7.8,.03,10.95,0,22.65-1.33,34.77-3.95,42.85-9.26,81.13-37.38,105-77.16,108.78-181.22,229.54-192.96,234.62-193.37l2.56,31.69-1.28-15.84,1.37,15.83c-.27,.03-27.65,2.79-66.9,25.85-36.47,21.43-90.91,65.22-143.12,152.21-28.38,47.28-74.14,80.77-125.55,91.87-14.33,3.1-28.29,4.67-41.49,4.67-2.48,0-5.14-.01-7.97-.03-66.01-.35-220.68-1.14-313.37,165.26-7.16,12.86-21.98,20.02-41.07,20.02Z" style="fill:#212a3d;"/><path d="M764.8,871.46c-84.7-72.06-170.25-120.64-254.27-144.41-67.9-19.2-134.92-22.34-199.18-9.32-1.97,.4-3.9,.84-5.84,1.26-21.41,4.06-39.48,10.28-50.41,14.56-74.79,27.16-136.42,87.45-136.42,87.45,0,0,217.16,94.03,417.95,108.02,183.1,12.76,244.56-43.63,244.56-43.63l-16.39-13.95Zm-152.29,27.02c-145.45,5.81-312.04-42.77-434.1-88.48,16.67-12.29,43.45-29.32,79.02-43.3l.14,.3c.15-.07,3.52-1.62,9.2-3.83,13.12-4.74,27.33-9.01,42.57-12.48,24.38-4.9,53.6-6.71,79.04,3.04,22.97,8.81,39.39,25.56,50.2,51.19l29.29-12.34c-8.38-19.9-19.88-36.07-34.29-48.45,22.57,2.54,45.36,7.03,68.28,13.51,73.2,20.7,148.04,61.64,222.75,121.82-20.81,7.4-57.36,16.83-112.12,19.01Z" style="fill:#212a3d;"/></g></svg>